<svg xmlns="http://www.w3.org/2000/svg" viewBox="0 0 180 180" fill="none" shape-rendering="auto" width="512" height="512"><desc>"Bottts" by "Pablo Stanley", licensed under "Free for personal and commercial use". / Remix of the original. - Created with dicebear.com</desc><metadata xmlns:dc="http://purl.org/dc/elements/1.1/" xmlns:cc="http://creativecommons.org/ns#" xmlns:rdf="http://www.w3.org/1999/02/22-rdf-syntax-ns#"><rdf:RDF><cc:Work><dc:title>Bottts</dc:title><dc:creator><cc:Agent rdf:about="https://twitter.com/pablostanley"><dc:title>Pablo Stanley</dc:title></cc:Agent></dc:creator><dc:source>https://bottts.com/</dc:source><cc:license rdf:resource="https://bottts.com/" /></cc:Work></rdf:RDF></metadata><mask id="viewboxMask"><rect width="180" height="180" rx="0" ry="0" x="0" y="0" fill="#fff" /></mask><g mask="url(#viewboxMask)"><g transform="translate(0 66)"><path d="M38 12c-2.95 11.7-19.9 6.67-23.37 18-3.46 11.35 8.03 20 17.53 20" stroke="#2A3544" stroke-width="6" opacity=".9"/><path d="M150 55c8.4 3.49 20.1-7.6 16-16.5-4.1-8.9-16-6.7-16-19.3" stroke="#2A3544" stroke-width="4" opacity=".9"/><mask id="sidesCables01-a" style="mask-type:luminance" maskUnits="userSpaceOnUse" x="21" y="6" width="138" height="58"><g fill="#fff"><rect x="21" y="35" width="16" height="22" rx="2"/><rect x="136" y="42" width="23" height="22" rx="2"/><rect x="136" y="6" width="23" height="18" rx="2"/></g></mask><g mask="url(#sidesCables01-a)"><path d="M0 0h180v76H0V0Z" fill="#039be5"/><path d="M0 0h180v76H0V0Z" fill="#fff" fill-opacity=".3"/></g></g><g transform="translate(41)"><mask id="topRadar-a" style="mask-type:luminance" maskUnits="userSpaceOnUse" x="37" y="0" width="36" height="53"><g fill="#fff"><path fill-rule="evenodd" clip-rule="evenodd" d="M43.8.11A20 20 0 1 0 72.08 28.4"/><circle cx="67.13" cy="5.06" r="4" transform="rotate(45 67.13 5.06)"/><path transform="rotate(45 64.3 6.48)" d="M64.31 6.48h2v26h-2z"/><path d="M47.94 28.11h4v24h-4z"/></g></mask><g mask="url(#topRadar-a)"><path d="M0 0h100v52H0V0Z" fill="#90A4AE"/><path d="M0 0h100v52H0V0Z" fill="#fff" fill-opacity=".3"/><path fill-rule="evenodd" clip-rule="evenodd" d="M43.8.11A20 20 0 1 0 72.08 28.4" fill="#fff" fill-opacity=".2"/><circle cx="67.13" cy="7.41" r="5.66" transform="rotate(45 67.13 7.4)" fill="#fff" fill-opacity=".8"/></g></g><g transform="translate(25 44)"><mask id="faceSquare03-a" style="mask-type:luminance" maskUnits="userSpaceOnUse" x="0" y="0" width="130" height="120"><path fill-rule="evenodd" clip-rule="evenodd" d="M0 18A18 18 0 0 1 18 0h94a18 18 0 0 1 18 18v27.15a40 40 0 0 1-2.28 13.31L110.24 108a18 18 0 0 1-16.98 12H36.74a18 18 0 0 1-16.98-12L2.28 58.45A40 40 0 0 1 0 45.15V18Z" fill="#fff"/></mask><g mask="url(#faceSquare03-a)"><path d="M-2-2h134v124H-2V-2Z" fill="#039be5"/><g transform="translate(-1 -1)"></g></g></g><g transform="translate(52 124)"><g fill="#000" fill-opacity=".6"><rect x="28" y="10" width="6" height="14" rx="2"/><rect x="14" y="10" width="6" height="14" rx="2"/><rect x="42" y="10" width="6" height="14" rx="2"/><rect x="56" y="10" width="6" height="14" rx="2"/></g></g><g transform="translate(38 76)"><rect y="11" width="104" height="34" rx="17" fill="#000" fill-opacity=".8"/><circle cx="29" cy="28" r="13" fill="#F1EEDA"/><circle cx="75" cy="28" r="13" fill="#F1EEDA"/><rect x="24" y="23" width="10" height="10" rx="2" fill="#000" fill-opacity=".8"/><rect x="70" y="23" width="10" height="10" rx="2" fill="#000" fill-opacity=".8"/></g></g></svg>